<mxfile host="app.diagrams.net" agent="Mozilla/5.0 (X11; Ubuntu; Linux x86_64; rv:139.0) Gecko/20100101 Firefox/139.0" version="27.1.6">
  <diagram name="Page-1" id="POaLV1qd_8ivgcaJ0k6t">
    <mxGraphModel dx="2206" dy="1821" grid="1" gridSize="10" guides="1" tooltips="1" connect="1" arrows="1" fold="1" page="1" pageScale="1" pageWidth="850" pageHeight="1100" math="0" shadow="0">
      <root>
        <mxCell id="0" />
        <mxCell id="1" parent="0" />
        <mxCell id="8z2NHTdnz_yu78FJvaMC-28" value="" style="rounded=1;whiteSpace=wrap;html=1;strokeColor=none;strokeWidth=3;align=center;verticalAlign=middle;fontFamily=Helvetica;fontSize=12;fontColor=default;fillColor=#142037;" vertex="1" parent="1">
          <mxGeometry x="-40" y="-50" width="1480" height="420" as="geometry" />
        </mxCell>
        <mxCell id="8z2NHTdnz_yu78FJvaMC-53" style="edgeStyle=orthogonalEdgeStyle;rounded=0;orthogonalLoop=1;jettySize=auto;html=1;exitX=0.409;exitY=1;exitDx=0;exitDy=0;entryX=1;entryY=0.5;entryDx=0;entryDy=0;fontFamily=Helvetica;fontSize=12;fontColor=default;strokeColor=#B3B3B3;strokeWidth=4;exitPerimeter=0;" edge="1" parent="1" source="8z2NHTdnz_yu78FJvaMC-2" target="8z2NHTdnz_yu78FJvaMC-50">
          <mxGeometry relative="1" as="geometry">
            <Array as="points">
              <mxPoint x="515" y="190" />
              <mxPoint x="490" y="190" />
              <mxPoint x="490" y="275" />
            </Array>
          </mxGeometry>
        </mxCell>
        <mxCell id="8z2NHTdnz_yu78FJvaMC-54" style="edgeStyle=orthogonalEdgeStyle;shape=connector;rounded=0;orthogonalLoop=1;jettySize=auto;html=1;exitX=0.578;exitY=1.04;exitDx=0;exitDy=0;entryX=1;entryY=0.5;entryDx=0;entryDy=0;strokeColor=#B3B3B3;strokeWidth=4;align=center;verticalAlign=middle;fontFamily=Helvetica;fontSize=12;fontColor=default;labelBackgroundColor=default;endArrow=classic;exitPerimeter=0;" edge="1" parent="1" source="8z2NHTdnz_yu78FJvaMC-2" target="8z2NHTdnz_yu78FJvaMC-51">
          <mxGeometry relative="1" as="geometry">
            <Array as="points">
              <mxPoint x="640" y="190" />
              <mxPoint x="800" y="190" />
              <mxPoint x="800" y="275" />
            </Array>
          </mxGeometry>
        </mxCell>
        <mxCell id="8z2NHTdnz_yu78FJvaMC-2" value="" style="rounded=1;whiteSpace=wrap;html=1;strokeColor=#22D234;fillColor=#A2D2A4;strokeWidth=3;" vertex="1" parent="1">
          <mxGeometry x="212.5" y="110" width="740" height="50" as="geometry" />
        </mxCell>
        <mxCell id="8z2NHTdnz_yu78FJvaMC-52" style="edgeStyle=orthogonalEdgeStyle;rounded=0;orthogonalLoop=1;jettySize=auto;html=1;exitX=0;exitY=0.5;exitDx=0;exitDy=0;fontFamily=Helvetica;fontSize=12;fontColor=#B3B3B3;strokeColor=#B3B3B3;strokeWidth=4;entryX=0;entryY=0.5;entryDx=0;entryDy=0;" edge="1" parent="1" source="8z2NHTdnz_yu78FJvaMC-16" target="8z2NHTdnz_yu78FJvaMC-48">
          <mxGeometry relative="1" as="geometry">
            <Array as="points">
              <mxPoint y="135" />
              <mxPoint y="275" />
            </Array>
          </mxGeometry>
        </mxCell>
        <mxCell id="8z2NHTdnz_yu78FJvaMC-16" value="&lt;font style=&quot;font-size: 23px;&quot;&gt;1&lt;/font&gt;" style="rounded=1;whiteSpace=wrap;html=1;strokeColor=#22D234;fillColor=#A2D2A4;strokeWidth=3;" vertex="1" parent="1">
          <mxGeometry x="30" y="110" width="170" height="50" as="geometry" />
        </mxCell>
        <mxCell id="8z2NHTdnz_yu78FJvaMC-19" style="edgeStyle=orthogonalEdgeStyle;rounded=0;orthogonalLoop=1;jettySize=auto;html=1;exitX=0.5;exitY=1;exitDx=0;exitDy=0;" edge="1" parent="1">
          <mxGeometry relative="1" as="geometry">
            <mxPoint x="250" y="80" as="sourcePoint" />
            <mxPoint x="250" y="80" as="targetPoint" />
          </mxGeometry>
        </mxCell>
        <mxCell id="8z2NHTdnz_yu78FJvaMC-24" value="TEXT_DOC_ID" style="text;html=1;align=center;verticalAlign=middle;resizable=0;points=[];autosize=1;strokeColor=none;fillColor=none;fontSize=23;fontColor=#B3B3B3;" vertex="1" parent="1">
          <mxGeometry x="20" y="60" width="180" height="40" as="geometry" />
        </mxCell>
        <mxCell id="8z2NHTdnz_yu78FJvaMC-25" value="&lt;font style=&quot;font-size: 23px; color: rgb(179, 179, 179);&quot;&gt;TEXT&lt;/font&gt;" style="text;html=1;align=center;verticalAlign=middle;resizable=0;points=[];autosize=1;strokeColor=none;fillColor=none;fontFamily=Helvetica;fontSize=12;fontColor=default;" vertex="1" parent="1">
          <mxGeometry x="210" y="60" width="80" height="40" as="geometry" />
        </mxCell>
        <mxCell id="8z2NHTdnz_yu78FJvaMC-31" value="" style="strokeWidth=2;html=1;shape=mxgraph.flowchart.annotation_2;align=left;labelPosition=right;pointerEvents=1;rounded=1;strokeColor=#22D234;verticalAlign=middle;fontFamily=Helvetica;fontSize=12;fontColor=default;fillColor=#A2D2A4;direction=south;" vertex="1" parent="1">
          <mxGeometry x="510" y="50" width="122.5" height="50" as="geometry" />
        </mxCell>
        <mxCell id="8z2NHTdnz_yu78FJvaMC-32" value="&lt;font style=&quot;font-size: 23px;&quot;&gt;Named Entity&lt;/font&gt;" style="rounded=1;whiteSpace=wrap;html=1;strokeColor=#22D234;strokeWidth=3;align=center;verticalAlign=middle;fontFamily=Helvetica;fontSize=12;fontColor=default;fillColor=#A2D2A4;" vertex="1" parent="1">
          <mxGeometry x="485" y="-20" width="170" height="60" as="geometry" />
        </mxCell>
        <mxCell id="8z2NHTdnz_yu78FJvaMC-43" value="TEXT_CHAR_END" style="text;html=1;align=center;verticalAlign=middle;resizable=0;points=[];autosize=1;strokeColor=none;fillColor=none;fontFamily=Helvetica;fontSize=23;fontColor=#B3B3B3;" vertex="1" parent="1">
          <mxGeometry x="1182.5" y="60" width="220" height="40" as="geometry" />
        </mxCell>
        <mxCell id="8z2NHTdnz_yu78FJvaMC-44" value="TEXT_CHAR_BEGIN" style="text;html=1;align=center;verticalAlign=middle;resizable=0;points=[];autosize=1;strokeColor=none;fillColor=none;fontFamily=Helvetica;fontSize=23;fontColor=#B3B3B3;" vertex="1" parent="1">
          <mxGeometry x="952.5" y="60" width="240" height="40" as="geometry" />
        </mxCell>
        <mxCell id="8z2NHTdnz_yu78FJvaMC-45" value="ENTITY_DOC_ID" style="text;html=1;align=center;verticalAlign=middle;resizable=0;points=[];autosize=1;strokeColor=none;fillColor=none;fontFamily=Helvetica;fontSize=23;fontColor=#B3B3B3;" vertex="1" parent="1">
          <mxGeometry x="15" y="210" width="200" height="40" as="geometry" />
        </mxCell>
        <mxCell id="8z2NHTdnz_yu78FJvaMC-46" value="ENTITY_CHAR_BEGIN" style="text;html=1;align=center;verticalAlign=middle;resizable=0;points=[];autosize=1;strokeColor=none;fillColor=none;fontFamily=Helvetica;fontSize=23;fontColor=#B3B3B3;" vertex="1" parent="1">
          <mxGeometry x="215" y="210" width="270" height="40" as="geometry" />
        </mxCell>
        <mxCell id="8z2NHTdnz_yu78FJvaMC-47" value="ENTITY_CHAR_END" style="text;html=1;align=center;verticalAlign=middle;resizable=0;points=[];autosize=1;strokeColor=none;fillColor=none;fontFamily=Helvetica;fontSize=23;fontColor=#B3B3B3;" vertex="1" parent="1">
          <mxGeometry x="502.5" y="210" width="240" height="40" as="geometry" />
        </mxCell>
        <mxCell id="8z2NHTdnz_yu78FJvaMC-48" value="&lt;font style=&quot;font-size: 23px;&quot;&gt;1&lt;/font&gt;" style="rounded=1;whiteSpace=wrap;html=1;strokeColor=#22D234;fillColor=#A2D2A4;strokeWidth=3;" vertex="1" parent="1">
          <mxGeometry x="30" y="250" width="170" height="50" as="geometry" />
        </mxCell>
        <mxCell id="8z2NHTdnz_yu78FJvaMC-50" value="&lt;font style=&quot;font-size: 23px;&quot;&gt;29&lt;/font&gt;" style="rounded=1;whiteSpace=wrap;html=1;strokeColor=#22D234;fillColor=#A2D2A4;strokeWidth=3;" vertex="1" parent="1">
          <mxGeometry x="230" y="250" width="240" height="50" as="geometry" />
        </mxCell>
        <mxCell id="8z2NHTdnz_yu78FJvaMC-51" value="&lt;font style=&quot;font-size: 23px;&quot;&gt;39&lt;/font&gt;" style="rounded=1;whiteSpace=wrap;html=1;strokeColor=#22D234;fillColor=#A2D2A4;strokeWidth=3;" vertex="1" parent="1">
          <mxGeometry x="512.5" y="250" width="220" height="50" as="geometry" />
        </mxCell>
        <mxCell id="8z2NHTdnz_yu78FJvaMC-55" value="&lt;font style=&quot;font-size: 23px;&quot;&gt;0&lt;/font&gt;" style="rounded=1;whiteSpace=wrap;html=1;strokeColor=#22D234;fillColor=#A2D2A4;strokeWidth=3;" vertex="1" parent="1">
          <mxGeometry x="962.5" y="110" width="220" height="50" as="geometry" />
        </mxCell>
        <mxCell id="8z2NHTdnz_yu78FJvaMC-56" value="&lt;font style=&quot;font-size: 23px;&quot;&gt;72&lt;/font&gt;" style="rounded=1;whiteSpace=wrap;html=1;strokeColor=#22D234;fillColor=#A2D2A4;strokeWidth=3;" vertex="1" parent="1">
          <mxGeometry x="1192.5" y="110" width="220" height="50" as="geometry" />
        </mxCell>
        <mxCell id="8z2NHTdnz_yu78FJvaMC-59" value="" style="rounded=1;whiteSpace=wrap;html=1;strokeColor=#22D234;strokeWidth=3;align=center;verticalAlign=middle;fontFamily=Helvetica;fontSize=12;fontColor=default;labelBackgroundColor=default;fillColor=#22D234;" vertex="1" parent="1">
          <mxGeometry x="512.5" y="110" width="127.5" height="50" as="geometry" />
        </mxCell>
        <mxCell id="8z2NHTdnz_yu78FJvaMC-58" value="&lt;font style=&quot;font-size: 23px;&quot;&gt;I&#39;m having an issue with the GoPro Hero. It&#39;s affecting my productivity.&lt;/font&gt;" style="text;html=1;align=center;verticalAlign=middle;whiteSpace=wrap;rounded=0;fontFamily=Helvetica;fontSize=12;fontColor=default;labelBackgroundColor=none;" vertex="1" parent="1">
          <mxGeometry x="212.5" y="120" width="740" height="30" as="geometry" />
        </mxCell>
      </root>
    </mxGraphModel>
  </diagram>
</mxfile>
